<svg id="Apps" xmlns="http://www.w3.org/2000/svg" width="24" height="24" viewBox="0 0 24 24">
  <g id="Apps-2" data-name="Apps" transform="translate(2 2)">
    <path id="Shape" d="M2.682,5.37A11.153,11.153,0,0,1,1.448,5.3,1.55,1.55,0,0,1,.073,3.938a10.821,10.821,0,0,1,0-2.506A1.568,1.568,0,0,1,1.448.068a11.193,11.193,0,0,1,2.467,0A1.568,1.568,0,0,1,5.29,1.432a10.821,10.821,0,0,1,0,2.506A1.55,1.55,0,0,1,3.915,5.3,11.153,11.153,0,0,1,2.682,5.37Zm0-3.87a9.676,9.676,0,0,0-1.067.059.06.06,0,0,0-.036.018.046.046,0,0,0-.015.029,9.218,9.218,0,0,0,0,2.158.048.048,0,0,0,.015.03.066.066,0,0,0,.036.018,9.676,9.676,0,0,0,1.067.059,9.676,9.676,0,0,0,1.067-.059.066.066,0,0,0,.036-.018.055.055,0,0,0,.016-.03,9.317,9.317,0,0,0,0-2.158.053.053,0,0,0-.016-.029.06.06,0,0,0-.036-.018A9.676,9.676,0,0,0,2.682,1.5Z" transform="translate(0.318 0.315)" fill="#fff"/>
    <path id="Shape-2" data-name="Shape" d="M2.682,5.37A11.153,11.153,0,0,1,1.448,5.3,1.55,1.55,0,0,1,.073,3.938a10.821,10.821,0,0,1,0-2.506A1.568,1.568,0,0,1,1.448.068a11.193,11.193,0,0,1,2.467,0A1.568,1.568,0,0,1,5.29,1.432a10.821,10.821,0,0,1,0,2.506A1.55,1.55,0,0,1,3.915,5.3,11.153,11.153,0,0,1,2.682,5.37Zm0-3.87a9.676,9.676,0,0,0-1.067.059.062.062,0,0,0-.036.018.046.046,0,0,0-.015.029,9.218,9.218,0,0,0,0,2.158.048.048,0,0,0,.015.03.068.068,0,0,0,.036.018,9.676,9.676,0,0,0,1.067.059,9.676,9.676,0,0,0,1.067-.059.066.066,0,0,0,.036-.018.055.055,0,0,0,.016-.03,9.317,9.317,0,0,0,0-2.158.053.053,0,0,0-.016-.029.06.06,0,0,0-.036-.018A9.676,9.676,0,0,0,2.682,1.5Z" transform="translate(7.318 0.315)" fill="#fff"/>
    <path id="Shape-3" data-name="Shape" d="M2.682,5.37A11.153,11.153,0,0,1,1.448,5.3,1.55,1.55,0,0,1,.073,3.938a10.821,10.821,0,0,1,0-2.506A1.568,1.568,0,0,1,1.448.068a11.193,11.193,0,0,1,2.467,0A1.568,1.568,0,0,1,5.29,1.432a10.821,10.821,0,0,1,0,2.506A1.55,1.55,0,0,1,3.915,5.3,11.153,11.153,0,0,1,2.682,5.37Zm0-3.87a9.676,9.676,0,0,0-1.067.059.06.06,0,0,0-.036.018.053.053,0,0,0-.016.029,9.317,9.317,0,0,0,0,2.158.055.055,0,0,0,.016.03.066.066,0,0,0,.036.018,9.676,9.676,0,0,0,1.067.059,9.676,9.676,0,0,0,1.067-.059.068.068,0,0,0,.036-.018.048.048,0,0,0,.015-.03,9.218,9.218,0,0,0,0-2.158.046.046,0,0,0-.015-.029.062.062,0,0,0-.036-.018A9.676,9.676,0,0,0,2.682,1.5Z" transform="translate(14.318 0.315)" fill="#fff"/>
    <path id="Shape-4" data-name="Shape" d="M2.682,5.37A11.153,11.153,0,0,1,1.448,5.3,1.568,1.568,0,0,1,.073,3.938a10.821,10.821,0,0,1,0-2.506A1.568,1.568,0,0,1,1.448.068a11.193,11.193,0,0,1,2.467,0A1.568,1.568,0,0,1,5.29,1.432a10.821,10.821,0,0,1,0,2.506A1.568,1.568,0,0,1,3.915,5.3,11.153,11.153,0,0,1,2.682,5.37Zm0-3.87a9.676,9.676,0,0,0-1.067.059.06.06,0,0,0-.036.018.046.046,0,0,0-.015.03,9.209,9.209,0,0,0,0,2.157.048.048,0,0,0,.015.03.066.066,0,0,0,.036.018,9.676,9.676,0,0,0,1.067.059,9.676,9.676,0,0,0,1.067-.059.066.066,0,0,0,.036-.018.055.055,0,0,0,.016-.03,9.307,9.307,0,0,0,0-2.157.052.052,0,0,0-.016-.03.06.06,0,0,0-.036-.018A9.676,9.676,0,0,0,2.682,1.5Z" transform="translate(0.318 7.315)" fill="#fff"/>
    <path id="Shape-5" data-name="Shape" d="M2.682,5.37A11.153,11.153,0,0,1,1.448,5.3,1.568,1.568,0,0,1,.073,3.938a10.821,10.821,0,0,1,0-2.506A1.568,1.568,0,0,1,1.448.068a11.193,11.193,0,0,1,2.467,0A1.568,1.568,0,0,1,5.29,1.432a10.821,10.821,0,0,1,0,2.506A1.568,1.568,0,0,1,3.915,5.3,11.153,11.153,0,0,1,2.682,5.37Zm0-3.87a9.676,9.676,0,0,0-1.067.059.062.062,0,0,0-.036.018.046.046,0,0,0-.015.03,9.209,9.209,0,0,0,0,2.157.048.048,0,0,0,.015.03.068.068,0,0,0,.036.018,9.676,9.676,0,0,0,1.067.059,9.676,9.676,0,0,0,1.067-.059.066.066,0,0,0,.036-.018.055.055,0,0,0,.016-.03,9.307,9.307,0,0,0,0-2.157.052.052,0,0,0-.016-.03.06.06,0,0,0-.036-.018A9.676,9.676,0,0,0,2.682,1.5Z" transform="translate(7.318 7.315)" fill="#fff"/>
    <path id="Shape-6" data-name="Shape" d="M2.682,5.37A11.153,11.153,0,0,1,1.448,5.3,1.568,1.568,0,0,1,.073,3.938a10.821,10.821,0,0,1,0-2.506A1.568,1.568,0,0,1,1.448.068a11.193,11.193,0,0,1,2.467,0A1.568,1.568,0,0,1,5.29,1.432a10.821,10.821,0,0,1,0,2.506A1.568,1.568,0,0,1,3.915,5.3,11.153,11.153,0,0,1,2.682,5.37Zm0-3.87a9.676,9.676,0,0,0-1.067.059.06.06,0,0,0-.036.018.052.052,0,0,0-.016.03,9.307,9.307,0,0,0,0,2.157.055.055,0,0,0,.016.03.066.066,0,0,0,.036.018,9.676,9.676,0,0,0,1.067.059,9.676,9.676,0,0,0,1.067-.059.068.068,0,0,0,.036-.018.048.048,0,0,0,.015-.03,9.209,9.209,0,0,0,0-2.157.046.046,0,0,0-.015-.03.062.062,0,0,0-.036-.018A9.676,9.676,0,0,0,2.682,1.5Z" transform="translate(14.318 7.315)" fill="#fff"/>
    <path id="Shape-7" data-name="Shape" d="M2.682,5.37A11.153,11.153,0,0,1,1.448,5.3,1.568,1.568,0,0,1,.073,3.938a10.821,10.821,0,0,1,0-2.506A1.568,1.568,0,0,1,1.448.068a11.193,11.193,0,0,1,2.467,0A1.568,1.568,0,0,1,5.29,1.432a10.821,10.821,0,0,1,0,2.506A1.568,1.568,0,0,1,3.915,5.3,11.153,11.153,0,0,1,2.682,5.37Zm0-3.87a9.676,9.676,0,0,0-1.067.059.06.06,0,0,0-.036.018.046.046,0,0,0-.015.03,9.209,9.209,0,0,0,0,2.157.048.048,0,0,0,.015.03.066.066,0,0,0,.036.018,9.676,9.676,0,0,0,1.067.059,9.676,9.676,0,0,0,1.067-.059.066.066,0,0,0,.036-.018.055.055,0,0,0,.016-.03,9.307,9.307,0,0,0,0-2.157.052.052,0,0,0-.016-.03.06.06,0,0,0-.036-.018A9.676,9.676,0,0,0,2.682,1.5Z" transform="translate(0.318 14.315)" fill="#fff"/>
    <path id="Shape-8" data-name="Shape" d="M2.682,5.37A11.153,11.153,0,0,1,1.448,5.3,1.568,1.568,0,0,1,.073,3.938a10.821,10.821,0,0,1,0-2.506A1.568,1.568,0,0,1,1.448.068a11.193,11.193,0,0,1,2.467,0A1.568,1.568,0,0,1,5.29,1.432a10.821,10.821,0,0,1,0,2.506A1.568,1.568,0,0,1,3.915,5.3,11.153,11.153,0,0,1,2.682,5.37Zm0-3.87a9.676,9.676,0,0,0-1.067.059.062.062,0,0,0-.036.018.046.046,0,0,0-.015.03,9.209,9.209,0,0,0,0,2.157.048.048,0,0,0,.015.03.068.068,0,0,0,.036.018,9.676,9.676,0,0,0,1.067.059,9.676,9.676,0,0,0,1.067-.059.066.066,0,0,0,.036-.018.055.055,0,0,0,.016-.03,9.307,9.307,0,0,0,0-2.157.052.052,0,0,0-.016-.03.06.06,0,0,0-.036-.018A9.676,9.676,0,0,0,2.682,1.5Z" transform="translate(7.318 14.315)" fill="#fff"/>
    <path id="Shape-9" data-name="Shape" d="M2.682,5.37A11.153,11.153,0,0,1,1.448,5.3,1.568,1.568,0,0,1,.073,3.938a10.821,10.821,0,0,1,0-2.506A1.568,1.568,0,0,1,1.448.068a11.193,11.193,0,0,1,2.467,0A1.568,1.568,0,0,1,5.29,1.432a10.821,10.821,0,0,1,0,2.506A1.568,1.568,0,0,1,3.915,5.3,11.153,11.153,0,0,1,2.682,5.37Zm0-3.87a9.676,9.676,0,0,0-1.067.059.06.06,0,0,0-.036.018.052.052,0,0,0-.016.03,9.307,9.307,0,0,0,0,2.157.055.055,0,0,0,.016.03.066.066,0,0,0,.036.018,9.676,9.676,0,0,0,1.067.059,9.676,9.676,0,0,0,1.067-.059.068.068,0,0,0,.036-.018.048.048,0,0,0,.015-.03,9.209,9.209,0,0,0,0-2.157.046.046,0,0,0-.015-.03.062.062,0,0,0-.036-.018A9.676,9.676,0,0,0,2.682,1.5Z" transform="translate(14.318 14.315)" fill="#fff"/>
  </g>
</svg>
